<mxfile host="app.diagrams.net" agent="Mozilla/5.0 (Windows NT 10.0; Win64; x64) AppleWebKit/537.36 (KHTML, like Gecko) Chrome/128.0.0.0 Safari/537.36" version="24.7.16">
  <diagram name="Page-1" id="iva2wtmsDmutVhJ2b_QY">
    <mxGraphModel dx="2333" dy="1238" grid="1" gridSize="10" guides="1" tooltips="1" connect="1" arrows="1" fold="1" page="1" pageScale="1" pageWidth="850" pageHeight="1100" math="0" shadow="0">
      <root>
        <mxCell id="0" />
        <mxCell id="1" parent="0" />
        <mxCell id="AKkWTC3-3abUNbfM5H5E-1" value="Start" style="ellipse;whiteSpace=wrap;html=1;strokeWidth=1;spacing=2;fontSize=20;labelBackgroundColor=none;fillColor=#1ba1e2;strokeColor=#006EAF;rounded=1;fontColor=#ffffff;" vertex="1" parent="1">
          <mxGeometry x="362" y="161" width="127" height="80" as="geometry" />
        </mxCell>
        <mxCell id="AKkWTC3-3abUNbfM5H5E-3" value="&lt;font style=&quot;font-size: 20px;&quot;&gt;Enter Food_Item_Name,&lt;/font&gt;&lt;div&gt;&lt;font style=&quot;font-size: 20px;&quot;&gt;Servings&amp;nbsp; and Fat&lt;/font&gt;&lt;/div&gt;" style="shape=parallelogram;perimeter=parallelogramPerimeter;whiteSpace=wrap;html=1;fixedSize=1;labelBackgroundColor=none;fillColor=#60a917;strokeColor=#2D7600;fontColor=#ffffff;rounded=1;" vertex="1" parent="1">
          <mxGeometry x="279" y="281" width="292.87" height="120" as="geometry" />
        </mxCell>
        <mxCell id="AKkWTC3-3abUNbfM5H5E-4" value="&lt;span style=&quot;font-size: 20px;&quot;&gt;Calculate Calories=Fat*9&lt;/span&gt;" style="rounded=1;whiteSpace=wrap;html=1;labelBackgroundColor=none;fillColor=#e51400;strokeColor=#B20000;fontColor=#ffffff;" vertex="1" parent="1">
          <mxGeometry x="348" y="441" width="155" height="80" as="geometry" />
        </mxCell>
        <mxCell id="AKkWTC3-3abUNbfM5H5E-5" value="&lt;span style=&quot;font-size: 20px;&quot;&gt;Calculate&lt;/span&gt;&lt;div&gt;&lt;span style=&quot;font-size: 20px;&quot;&gt;Calories_per_serv=&lt;/span&gt;&lt;div&gt;&lt;span style=&quot;font-size: 20px;&quot;&gt;Servings/Calories&lt;/span&gt;&lt;/div&gt;&lt;/div&gt;" style="rounded=1;whiteSpace=wrap;html=1;labelBackgroundColor=none;fillColor=#e51400;strokeColor=#B20000;fontColor=#ffffff;" vertex="1" parent="1">
          <mxGeometry x="324" y="561" width="202" height="80" as="geometry" />
        </mxCell>
        <mxCell id="AKkWTC3-3abUNbfM5H5E-9" value="Stop" style="ellipse;whiteSpace=wrap;html=1;strokeWidth=1;spacing=2;fontSize=20;labelBackgroundColor=none;fillColor=#1ba1e2;strokeColor=#006EAF;fontColor=#ffffff;rounded=1;" vertex="1" parent="1">
          <mxGeometry x="362" y="841" width="127" height="80" as="geometry" />
        </mxCell>
        <mxCell id="AKkWTC3-3abUNbfM5H5E-10" value="&lt;span style=&quot;font-size: 20px;&quot;&gt;Display Calories_per_serv&lt;/span&gt;" style="shape=parallelogram;perimeter=parallelogramPerimeter;whiteSpace=wrap;html=1;fixedSize=1;labelBackgroundColor=none;fillColor=#60a917;strokeColor=#2D7600;fontColor=#ffffff;rounded=1;" vertex="1" parent="1">
          <mxGeometry x="279" y="681" width="292.87" height="120" as="geometry" />
        </mxCell>
        <mxCell id="AKkWTC3-3abUNbfM5H5E-11" value="" style="endArrow=classic;html=1;rounded=1;labelBackgroundColor=none;strokeColor=#23445D;fontColor=default;" edge="1" parent="1" target="AKkWTC3-3abUNbfM5H5E-3">
          <mxGeometry width="50" height="50" relative="1" as="geometry">
            <mxPoint x="420" y="241" as="sourcePoint" />
            <mxPoint x="470" y="191" as="targetPoint" />
          </mxGeometry>
        </mxCell>
        <mxCell id="AKkWTC3-3abUNbfM5H5E-12" value="" style="endArrow=classic;html=1;rounded=1;labelBackgroundColor=none;strokeColor=#23445D;fontColor=default;" edge="1" parent="1">
          <mxGeometry width="50" height="50" relative="1" as="geometry">
            <mxPoint x="424" y="401" as="sourcePoint" />
            <mxPoint x="426" y="441" as="targetPoint" />
          </mxGeometry>
        </mxCell>
        <mxCell id="AKkWTC3-3abUNbfM5H5E-14" value="" style="endArrow=classic;html=1;rounded=1;labelBackgroundColor=none;strokeColor=#23445D;fontColor=default;" edge="1" parent="1">
          <mxGeometry width="50" height="50" relative="1" as="geometry">
            <mxPoint x="425" y="521" as="sourcePoint" />
            <mxPoint x="427" y="561" as="targetPoint" />
          </mxGeometry>
        </mxCell>
        <mxCell id="AKkWTC3-3abUNbfM5H5E-15" value="" style="endArrow=classic;html=1;rounded=1;labelBackgroundColor=none;strokeColor=#23445D;fontColor=default;" edge="1" parent="1">
          <mxGeometry width="50" height="50" relative="1" as="geometry">
            <mxPoint x="425" y="641" as="sourcePoint" />
            <mxPoint x="427" y="681" as="targetPoint" />
          </mxGeometry>
        </mxCell>
        <mxCell id="AKkWTC3-3abUNbfM5H5E-16" value="" style="endArrow=classic;html=1;rounded=1;labelBackgroundColor=none;strokeColor=#23445D;fontColor=default;" edge="1" parent="1">
          <mxGeometry width="50" height="50" relative="1" as="geometry">
            <mxPoint x="425" y="801" as="sourcePoint" />
            <mxPoint x="427" y="841" as="targetPoint" />
          </mxGeometry>
        </mxCell>
      </root>
    </mxGraphModel>
  </diagram>
</mxfile>
